<svg id="eGxB27ZW5LA1" xmlns="http://www.w3.org/2000/svg" xmlns:xlink="http://www.w3.org/1999/xlink" viewBox="0 0 512 512" shape-rendering="geometricPrecision" text-rendering="geometricPrecision"><path d="M255.820112,-2.569545c20.787309,0,39.110023,10.512194,49.903846,26.491445c9.187401-5.674551,20.024015-8.950704,31.62871-8.950704c33.196697,0,60.107947,26.809399,60.107947,59.880472c33.196697,0,60.107947,26.809398,60.107947,59.880471c0,10.697387-2.815745,20.739617-7.74915,29.431245c21.362698,9.182822,36.315305,30.354963,36.315305,55.006268c0,23.111101-13.142513,43.164222-32.388275,53.146726c6.180161,9.409733,9.773408,20.658052,9.773408,32.742442c0,31.723287-24.762432,57.684872-56.08192,59.748276c3.153509,7.273932,4.900898,15.294411,4.900898,23.721477c0,33.071074-26.911249,59.880472-60.107946,59.880472-6.081359,0-11.951769-.899704-17.484457-2.572785-11.025868,13.178366-27.626923,21.565167-46.194263,21.565167-13.371706,0-25.723594-4.349816-35.707687-11.706556-9.984092,7.35674-22.335981,11.706556-35.707686,11.706556-25.061538,0-46.540781-15.27963-55.563098-36.997855-8.010141,3.937855-17.028005,6.150342-26.56458,6.150342-33.196697,0-60.107947-26.809398-60.107947-59.880471c0-6.455679,1.025467-12.672748,2.922966-18.498377-28.059788-5.054372-49.342971-29.512539-49.342971-58.922852c0-15.478908,5.895458-29.586069,15.571511-40.214604-13.840473-10.970376-22.713043-27.895085-22.713043-46.884271c0-22.767293,12.754402-42.566911,31.533429-52.694552-3.4349-7.537532-5.347789-15.909554-5.347789-24.726662c0-33.071073,26.911249-59.880471,60.107946-59.880471.198606,0,.396976.000963.595122.002871c0-.000961,0-.001908,0-.002871c0-33.071074,26.91125-59.880472,60.107947-59.880472c13.408332,0,25.791267,4.373677,35.789692,11.767091c10.480273-17.548988,29.708779-29.307832,51.694152-29.307832l-.000014.000014Z" transform="translate(3.955811 21.923714)" fill="#fff" stroke="#000" stroke-width="30"/><path d="M175.211827,222.964023c0-36.551355,6.446334-70.411079,17.417427-98.14387c7.161766,7.300785,16.031712,11.619713,25.636195,11.619713c9.797396,0,18.830441-4.494171,26.065663-12.06323c7.235222,7.569059,16.268267,12.06323,26.065663,12.06323s18.830442-4.494171,26.065664-12.06323c7.235222,7.569059,16.268267,12.06323,26.065663,12.06323c9.60447,0,18.474414-4.318928,25.636171-11.619697c10.97108,27.732791,17.417414,61.592516,17.417414,98.143854c0,93.979259-41.502639,137.322541-94.071825,137.322541s-96.298048-43.343282-96.298048-137.322541h.000013Z" transform="matrix(1.250676 0 0 1.353439-81.178726-51.703)" fill="#fff" stroke="#000" stroke-width="15"/><line x1="-0.159693" y1="-59.699574" x2="-0.159693" y2="45.296138" transform="matrix(1.250676 0 0 0.397379 259.019252 259.126426)" fill="none" stroke="#000" stroke-width="14"/><path d="M257.879446,355.747835q25.211695,0,25.211695-22.476568-1.203541-20.342461-25.813465-20.342461" transform="matrix(-.021673 1.420922-2.512338-.038321 1105.494335-113.952957)" fill="none" stroke="#000" stroke-width="8" stroke-linecap="round" stroke-miterlimit="8"/><path d="M257.879446,355.747835q25.211695,0,25.211695-22.476568-1.203541-20.342461-25.813465-20.342461" transform="matrix(-.051782 3.39489-2.084944-.031802 970.819292-587.449117)" fill="none" stroke="#000" stroke-width="9" stroke-linecap="square" stroke-miterlimit="8"/><path d="M257.879446,355.747835q25.211695,0,25.211695-22.476568-1.203541-20.342461-25.813465-20.342461" transform="matrix(-.015068 0.987866-1.490615-.022736 757.421462 145.116829)" opacity="0" fill="none" stroke="#000" stroke-width="4" stroke-linecap="round" stroke-miterlimit="8"/><path d="" transform="matrix(-.014371 0.942173-1.735933-.026478 841.023043 122.236863)" fill="none" stroke="#000" stroke-width="4" stroke-linecap="round" stroke-miterlimit="8"/><path d="" transform="matrix(-.014371 0.942173-1.735933-.026478 841.023043 122.236863)" fill="none" stroke="#000" stroke-width="4" stroke-linecap="round" stroke-miterlimit="8"/><path d="" transform="matrix(-.014371 0.942173-1.735933-.026478 841.023043 122.236863)" fill="none" stroke="#000" stroke-width="4" stroke-linecap="round" stroke-miterlimit="8"/><path d="" transform="matrix(-.014371 0.942173-1.735933-.026478 841.023043 122.236863)" fill="none" stroke="#000" stroke-width="4" stroke-linecap="round" stroke-miterlimit="8"/><path d="" transform="matrix(-.014371 0.942173-1.735933-.026478 840.42987 142.404729)" fill="none" stroke="#000" stroke-width="4" stroke-linecap="round" stroke-miterlimit="8"/><path d="" transform="matrix(-.014371 0.942173-1.735933-.026478 840.42987 142.404729)" fill="none" stroke="#000" stroke-width="4" stroke-linecap="round" stroke-miterlimit="8"/><path d="M257.879446,355.747835q25.211695,0,25.211695-22.476568-1.203541-20.342461-25.813465-20.342461" transform="matrix(-.01301 0.852942-.923374-.014084 571.149693 0.350165)" fill="none" stroke="#000" stroke-width="15" stroke-miterlimit="8"/><path d="M257.879446,355.747835q25.211695,0,25.211695-22.476568-1.203541-20.342461-25.813465-20.342461" transform="matrix(-2.273231-.255853 0.128439-1.141166 696.292394 606.454541)" fill="none" stroke="#000" stroke-width="15" stroke-miterlimit="8"/><path d="M257.879446,355.747835q25.211695,0,25.211695-22.476568-1.203541-20.342461-25.813465-20.342461" transform="matrix(2.276685-.22304 0.111967 1.1429-260.521208-159.843632)" fill="none" stroke="#000" stroke-width="15" stroke-miterlimit="8"/><ellipse rx="11.280494" ry="11.280497" transform="matrix(1.288784 0 0 1.288786 191.621805 183.525494)" stroke-width="0"/><ellipse rx="11.280494" ry="11.280497" transform="matrix(1.288784 0 0 1.288786 315.418307 183.525494)" stroke-width="0"/></svg>
